<svg role="img" viewBox="0 0 24 24" xmlns="http://www.w3.org/2000/svg"><title>Apple Music</title><path fill="#FA243C" d="M23.994 6.124a.5.5 0 0 0-.439-.098c-.604.164-2.712.73-4.778 2.667-.903.854-1.707 1.907-2.252 3.09-.988 2.176-.96 4.307-.906 5.982.028.851.062 1.937-.025 2.914-.082.924-.244 1.424-.506 1.785-.321.444-.766.666-1.326.666-.56 0-1.005-.222-1.326-.666-.262-.361-.424-.861-.506-1.785-.062-.568-.04-1.326-.015-2.155.022-.718.047-1.532.047-2.152 0-2.181-.61-4.052-1.785-5.436-1.126-1.301-2.744-2.164-4.634-2.164-.704 0-1.389.103-2.029.305a.5.5 0 1 0 .28.963c.577-.177 1.186-.268 1.749-.268 1.614 0 3.013.772 4.007 1.936 1.046 1.21 1.614 2.864 1.614 4.664 0 .651-.027 1.497-.051 2.25-.028.917-.056 1.866.009 2.62.048.537.149.918.307 1.156.22.304.495.437.886.437s.666-.133.886-.437c.158-.238.259-.619.307-1.156.089-.999.056-2.15.028-3.082-.055-1.736-.087-3.934.94-6.199.612-1.347 1.469-2.509 2.493-3.46 2.233-2.109 4.43-2.744 5.077-2.91.3-.083.485-.365.455-.664z"/></svg>
