<svg xmlns="http://www.w3.org/2000/svg" viewBox="0 0 24 24" fill="currentColor">
  <path d="M12 0C5.4 0 0 5.4 0 12s5.4 12 12 12 12-5.4 12-12S18.66 0 12 0zm5.521 17.34c-.24.379-.645.643-1.11.801-.47.159-.949.159-1.418 0l-5.007-1.771v-5.823c0-.159-.039-.315-.117-.451-.079-.136-.19-.254-.331-.339-.141-.085-.308-.128-.479-.128s-.338.043-.479.128c-.141.085-.252.203-.331.339-.078.136-.117.292-.117.451v5.823l-5.007 1.771c-.47.159-.948.159-1.418 0-.465-.158-.87-.422-1.11-.801-.24-.379-.357-.819-.337-1.26.02-.44.137-.871.338-1.265l3.286-9.354c.089-.264.238-.478.438-.651.2-.174.447-.284.715-.284.268 0 .515.11.715.284.2.173.349.387.438.651l3.286 9.354c.201.394.318.825.338 1.265.02.441-.097.881-.337 1.26z"/>
</svg>